<svg xmlns="http://www.w3.org/2000/svg" xmlns:xlink="http://www.w3.org/1999/xlink" zoomAndPan="magnify" preserveAspectRatio="xMidYMid meet" version="1.2" viewBox="13.52 120.64 344.83 159.42"><defs><clipPath id="4fcece8aea"><path d="M 14 191 L 108 191 L 108 280.261719 L 14 280.261719 Z M 14 191 "/></clipPath><clipPath id="88361150a6"><path d="M 13.398438 120.511719 L 108.648438 120.511719 L 108.648438 185 L 13.398438 185 Z M 13.398438 120.511719 "/></clipPath></defs><g id="6ee046f117"><g clip-rule="nonzero" clip-path="url(#4fcece8aea)"><path style=" stroke:none;fill-rule:nonzero;fill:#f36920;fill-opacity:1;" d="M 14.757812 191.777344 L 14.757812 201.617188 C 14.757812 209.09375 20.820312 215.15625 28.300781 215.15625 L 35.546875 215.15625 C 41.824219 215.15625 46.804688 220.449219 46.417969 226.714844 L 44.257812 261.785156 C 43.675781 271.257812 50.84375 279.707031 60.332031 280.050781 C 70.285156 280.40625 78.285156 272.121094 77.675781 262.277344 L 75.484375 226.714844 C 75.097656 220.449219 80.078125 215.15625 86.355469 215.15625 L 93.601562 215.15625 C 101.078125 215.15625 107.140625 209.097656 107.140625 201.617188 L 107.140625 191.777344 Z M 60.949219 269.414062 C 56.664062 269.414062 53.191406 265.941406 53.191406 261.652344 C 53.191406 257.367188 56.664062 253.894531 60.949219 253.894531 C 65.234375 253.894531 68.710938 257.367188 68.710938 261.652344 C 68.710938 265.941406 65.234375 269.414062 60.949219 269.414062 Z M 60.949219 269.414062 "/></g><g clip-rule="nonzero" clip-path="url(#88361150a6)"><path style=" stroke:none;fill-rule:nonzero;fill:#f36920;fill-opacity:1;" d="M 93.253906 120.652344 L 91.589844 140.453125 L 89.925781 120.652344 L 37.722656 120.652344 L 36.058594 140.453125 L 34.394531 120.652344 L 30.589844 120.652344 L 28.925781 140.453125 L 27.257812 120.652344 L 13.515625 120.652344 L 17.136719 184.210938 L 104.765625 184.210938 L 108.382812 120.652344 Z M 93.253906 120.652344 "/></g><g style="fill:#163f4b;fill-opacity:1;"><g transform="translate(122.12542, 178.516648)"><path style="stroke:none" d="M 27.625 -18.390625 C 26.800781 -18.390625 26.140625 -18.539062 25.640625 -18.84375 C 25.148438 -19.144531 24.710938 -19.648438 24.328125 -20.359375 L 18.21875 -31.75 C 17.894531 -32.351562 17.566406 -33.050781 17.234375 -33.84375 C 16.898438 -34.644531 16.648438 -35.238281 16.484375 -35.625 L 16.15625 -35.53125 C 16.488281 -33.550781 16.65625 -32.039062 16.65625 -31 L 16.65625 -2.46875 C 16.65625 -1.539062 16.28125 -0.867188 15.53125 -0.453125 C 14.789062 -0.0351562 13.570312 0.171875 11.875 0.171875 L 9.0625 0.171875 C 7.363281 0.171875 6.140625 -0.0351562 5.390625 -0.453125 C 4.648438 -0.867188 4.28125 -1.539062 4.28125 -2.46875 L 4.28125 -55.25 C 4.28125 -56.175781 4.648438 -56.84375 5.390625 -57.25 C 6.140625 -57.664062 7.363281 -57.875 9.0625 -57.875 L 11.625 -57.875 C 12.945312 -57.875 13.988281 -57.695312 14.75 -57.34375 C 15.519531 -56.988281 16.128906 -56.398438 16.578125 -55.578125 L 26.796875 -36.203125 C 27.347656 -35.210938 27.867188 -33.890625 28.359375 -32.234375 C 28.742188 -33.722656 29.238281 -35.046875 29.84375 -36.203125 L 40.078125 -55.578125 C 40.515625 -56.398438 41.117188 -56.988281 41.890625 -57.34375 C 42.660156 -57.695312 43.703125 -57.875 45.015625 -57.875 L 47.578125 -57.875 C 49.273438 -57.875 50.492188 -57.664062 51.234375 -57.25 C 51.984375 -56.84375 52.359375 -56.175781 52.359375 -55.25 L 52.359375 -2.46875 C 52.359375 -1.539062 51.984375 -0.867188 51.234375 -0.453125 C 50.492188 -0.0351562 49.273438 0.171875 47.578125 0.171875 L 44.765625 0.171875 C 43.066406 0.171875 41.84375 -0.0351562 41.09375 -0.453125 C 40.351562 -0.867188 39.984375 -1.539062 39.984375 -2.46875 L 39.984375 -31 C 39.984375 -32.320312 40.175781 -33.832031 40.5625 -35.53125 L 40.234375 -35.625 C 39.847656 -34.570312 39.242188 -33.28125 38.421875 -31.75 L 32.328125 -20.359375 C 31.941406 -19.648438 31.5 -19.144531 31 -18.84375 C 30.507812 -18.539062 29.851562 -18.390625 29.03125 -18.390625 Z M 27.625 -18.390625 "/></g></g><g style="fill:#163f4b;fill-opacity:1;"><g transform="translate(181.327481, 178.516648)"><path style="stroke:none" d="M 9.40625 0.171875 C 6.101562 0.171875 4.453125 -0.707031 4.453125 -2.46875 L 4.453125 -54.421875 C 4.453125 -55.578125 4.710938 -56.414062 5.234375 -56.9375 C 5.753906 -57.457031 6.59375 -57.71875 7.75 -57.71875 L 21.515625 -57.71875 C 26.578125 -57.71875 30.644531 -56.46875 33.71875 -53.96875 C 36.800781 -51.46875 38.34375 -47.300781 38.34375 -41.46875 C 38.34375 -35.039062 35.726562 -30.398438 30.5 -27.546875 L 30.5 -27.203125 C 31.71875 -26.546875 32.820312 -25.445312 33.8125 -23.90625 C 34.800781 -22.375 35.539062 -20.726562 36.03125 -18.96875 L 40.890625 -3.140625 C 41.054688 -2.472656 41.140625 -2.140625 41.140625 -2.140625 C 41.140625 -0.660156 39.4375 0.078125 36.03125 0.078125 L 33.140625 0.078125 C 30.234375 0.078125 28.585938 -0.660156 28.203125 -2.140625 L 23.828125 -17.8125 C 23.335938 -19.019531 22.773438 -19.867188 22.140625 -20.359375 C 21.503906 -20.859375 20.5 -21.109375 19.125 -21.109375 L 17.15625 -21.109375 L 17.15625 -2.46875 C 17.15625 -0.707031 15.503906 0.171875 12.203125 0.171875 Z M 21.765625 -33.140625 C 22.972656 -33.140625 24.003906 -33.742188 24.859375 -34.953125 C 25.710938 -36.171875 26.140625 -37.929688 26.140625 -40.234375 C 26.140625 -42.546875 25.710938 -44.238281 24.859375 -45.3125 C 24.003906 -46.382812 22.890625 -46.921875 21.515625 -46.921875 L 17.15625 -46.921875 L 17.15625 -33.140625 Z M 21.765625 -33.140625 "/></g></g><g style="fill:#163f4b;fill-opacity:1;"><g transform="translate(226.029277, 178.516648)"><path style="stroke:none" d=""/></g></g><g style="fill:#163f4b;fill-opacity:1;"><g transform="translate(122.12542, 250.215686)"><path style="stroke:none" d="M 38.34375 -33.8125 C 39.382812 -33.8125 40.148438 -33.546875 40.640625 -33.015625 C 41.140625 -32.492188 41.390625 -31.65625 41.390625 -30.5 L 41.390625 -5.9375 C 41.390625 -4.675781 40.550781 -3.535156 38.875 -2.515625 C 37.195312 -1.492188 35.117188 -0.707031 32.640625 -0.15625 C 30.171875 0.382812 27.8125 0.65625 25.5625 0.65625 C 17.863281 0.65625 12.1875 -1.742188 8.53125 -6.546875 C 4.875 -11.359375 3.046875 -18.851562 3.046875 -29.03125 C 3.046875 -38.914062 4.882812 -46.273438 8.5625 -51.109375 C 12.25 -55.953125 17.96875 -58.375 25.71875 -58.375 C 28.195312 -58.375 30.585938 -58.082031 32.890625 -57.5 C 35.203125 -56.925781 37.070312 -56.1875 38.5 -55.28125 C 39.9375 -54.375 40.65625 -53.453125 40.65625 -52.515625 C 40.65625 -51.804688 40.363281 -50.847656 39.78125 -49.640625 C 39.207031 -48.429688 38.503906 -47.375 37.671875 -46.46875 C 36.847656 -45.5625 36.109375 -45.109375 35.453125 -45.109375 C 35.234375 -45.109375 34.65625 -45.3125 33.71875 -45.71875 C 32.789062 -46.132812 31.75 -46.492188 30.59375 -46.796875 C 29.4375 -47.097656 28.0625 -47.25 26.46875 -47.25 C 22.945312 -47.25 20.363281 -45.765625 18.71875 -42.796875 C 17.070312 -39.828125 16.25 -35.207031 16.25 -28.9375 C 16.25 -22.226562 17.03125 -17.484375 18.59375 -14.703125 C 20.15625 -11.929688 22.476562 -10.546875 25.5625 -10.546875 C 26.882812 -10.546875 28.007812 -10.660156 28.9375 -10.890625 L 28.9375 -22.921875 L 24.734375 -22.921875 C 23.910156 -22.921875 23.304688 -23.25 22.921875 -23.90625 C 22.535156 -24.570312 22.34375 -25.617188 22.34375 -27.046875 L 22.34375 -29.6875 C 22.34375 -31.113281 22.535156 -32.15625 22.921875 -32.8125 C 23.304688 -33.476562 23.910156 -33.8125 24.734375 -33.8125 Z M 38.34375 -33.8125 "/></g></g><g style="fill:#163f4b;fill-opacity:1;"><g transform="translate(170.03128, 250.215686)"><path style="stroke:none" d="M 24.734375 0.65625 C 10.335938 0.65625 3.140625 -9.179688 3.140625 -28.859375 C 3.140625 -48.535156 10.335938 -58.375 24.734375 -58.375 C 31.773438 -58.375 37.117188 -55.984375 40.765625 -51.203125 C 44.421875 -46.421875 46.25 -38.972656 46.25 -28.859375 C 46.25 -18.742188 44.421875 -11.296875 40.765625 -6.515625 C 37.117188 -1.734375 31.773438 0.65625 24.734375 0.65625 Z M 24.8125 -10.140625 C 26.789062 -10.140625 28.382812 -10.6875 29.59375 -11.78125 C 30.8125 -12.882812 31.722656 -14.796875 32.328125 -17.515625 C 32.929688 -20.242188 33.234375 -24.023438 33.234375 -28.859375 C 33.234375 -33.640625 32.929688 -37.390625 32.328125 -40.109375 C 31.722656 -42.828125 30.8125 -44.738281 29.59375 -45.84375 C 28.382812 -46.945312 26.789062 -47.5 24.8125 -47.5 C 22.832031 -47.5 21.222656 -46.945312 19.984375 -45.84375 C 18.753906 -44.738281 17.820312 -42.828125 17.1875 -40.109375 C 16.5625 -37.390625 16.25 -33.640625 16.25 -28.859375 C 16.25 -24.078125 16.5625 -20.3125 17.1875 -17.5625 C 17.820312 -14.8125 18.753906 -12.882812 19.984375 -11.78125 C 21.222656 -10.6875 22.832031 -10.140625 24.8125 -10.140625 Z M 24.8125 -10.140625 "/></g></g><g style="fill:#163f4b;fill-opacity:1;"><g transform="translate(221.81248, 250.215686)"><path style="stroke:none" d="M 24.734375 0.65625 C 10.335938 0.65625 3.140625 -9.179688 3.140625 -28.859375 C 3.140625 -48.535156 10.335938 -58.375 24.734375 -58.375 C 31.773438 -58.375 37.117188 -55.984375 40.765625 -51.203125 C 44.421875 -46.421875 46.25 -38.972656 46.25 -28.859375 C 46.25 -18.742188 44.421875 -11.296875 40.765625 -6.515625 C 37.117188 -1.734375 31.773438 0.65625 24.734375 0.65625 Z M 24.8125 -10.140625 C 26.789062 -10.140625 28.382812 -10.6875 29.59375 -11.78125 C 30.8125 -12.882812 31.722656 -14.796875 32.328125 -17.515625 C 32.929688 -20.242188 33.234375 -24.023438 33.234375 -28.859375 C 33.234375 -33.640625 32.929688 -37.390625 32.328125 -40.109375 C 31.722656 -42.828125 30.8125 -44.738281 29.59375 -45.84375 C 28.382812 -46.945312 26.789062 -47.5 24.8125 -47.5 C 22.832031 -47.5 21.222656 -46.945312 19.984375 -45.84375 C 18.753906 -44.738281 17.820312 -42.828125 17.1875 -40.109375 C 16.5625 -37.390625 16.25 -33.640625 16.25 -28.859375 C 16.25 -24.078125 16.5625 -20.3125 17.1875 -17.5625 C 17.820312 -14.8125 18.753906 -12.882812 19.984375 -11.78125 C 21.222656 -10.6875 22.832031 -10.140625 24.8125 -10.140625 Z M 24.8125 -10.140625 "/></g></g><g style="fill:#163f4b;fill-opacity:1;"><g transform="translate(273.593679, 250.215686)"><path style="stroke:none" d="M 7.75 0 C 6.707031 0 5.9375 -0.257812 5.4375 -0.78125 C 4.945312 -1.300781 4.703125 -2.140625 4.703125 -3.296875 L 4.703125 -54.421875 C 4.703125 -55.578125 4.945312 -56.414062 5.4375 -56.9375 C 5.9375 -57.457031 6.707031 -57.71875 7.75 -57.71875 L 23.421875 -57.71875 C 30.566406 -57.71875 35.828125 -55.328125 39.203125 -50.546875 C 42.585938 -45.765625 44.28125 -38.535156 44.28125 -28.859375 C 44.28125 -19.179688 42.585938 -11.953125 39.203125 -7.171875 C 35.828125 -2.390625 30.566406 0 23.421875 0 Z M 23 -10.796875 C 25.914062 -10.796875 28.003906 -12.15625 29.265625 -14.875 C 30.535156 -17.601562 31.171875 -22.265625 31.171875 -28.859375 C 31.171875 -35.453125 30.535156 -40.109375 29.265625 -42.828125 C 28.003906 -45.554688 25.914062 -46.921875 23 -46.921875 L 17.734375 -46.921875 L 17.734375 -10.796875 Z M 23 -10.796875 "/></g></g><g style="fill:#163f4b;fill-opacity:1;"><g transform="translate(323.395993, 250.215686)"><path style="stroke:none" d="M 16.984375 0.65625 C 14.285156 0.65625 11.617188 0.257812 8.984375 -0.53125 C 6.347656 -1.332031 4.425781 -2.421875 3.21875 -3.796875 C 2.5 -4.785156 2.140625 -5.742188 2.140625 -6.671875 C 2.140625 -8.210938 2.550781 -9.78125 3.375 -11.375 C 4.207031 -12.96875 5.113281 -13.765625 6.09375 -13.765625 C 6.539062 -13.765625 7.242188 -13.488281 8.203125 -12.9375 C 9.160156 -12.394531 9.863281 -12.015625 10.3125 -11.796875 C 12.445312 -10.691406 14.34375 -10.140625 16 -10.140625 C 17.757812 -10.140625 19.296875 -10.550781 20.609375 -11.375 C 21.929688 -12.195312 22.59375 -13.597656 22.59375 -15.578125 C 22.59375 -17.671875 21.957031 -19.304688 20.6875 -20.484375 C 19.425781 -21.671875 17.453125 -22.976562 14.765625 -24.40625 C 10.640625 -26.769531 7.628906 -29.210938 5.734375 -31.734375 C 3.835938 -34.265625 2.890625 -37.617188 2.890625 -41.796875 C 2.890625 -45.148438 3.628906 -48.078125 5.109375 -50.578125 C 6.597656 -53.085938 8.644531 -55.015625 11.25 -56.359375 C 13.863281 -57.703125 16.847656 -58.375 20.203125 -58.375 C 22.066406 -58.375 24.039062 -58.082031 26.125 -57.5 C 28.21875 -56.925781 29.84375 -56.226562 31 -55.40625 C 31.988281 -54.695312 32.484375 -53.734375 32.484375 -52.515625 C 32.484375 -51.085938 32.164062 -49.578125 31.53125 -47.984375 C 30.90625 -46.390625 30.125 -45.59375 29.1875 -45.59375 C 28.75 -45.59375 27.953125 -45.8125 26.796875 -46.25 C 24.648438 -47.082031 22.863281 -47.5 21.4375 -47.5 C 19.125 -47.5 17.539062 -47.003906 16.6875 -46.015625 C 15.84375 -45.023438 15.421875 -43.894531 15.421875 -42.625 C 15.421875 -40.644531 15.941406 -39.144531 16.984375 -38.125 C 18.023438 -37.113281 19.703125 -36.003906 22.015625 -34.796875 C 22.503906 -34.578125 23.242188 -34.191406 24.234375 -33.640625 C 28.035156 -31.441406 30.769531 -29.078125 32.4375 -26.546875 C 34.113281 -24.015625 34.953125 -20.691406 34.953125 -16.578125 C 34.953125 -13.492188 34.289062 -10.644531 32.96875 -8.03125 C 31.65625 -5.425781 29.648438 -3.328125 26.953125 -1.734375 C 24.265625 -0.140625 20.941406 0.65625 16.984375 0.65625 Z M 16.984375 0.65625 "/></g></g><g style="fill:#163f4b;fill-opacity:1;"><g transform="translate(126.378481, 276.416876)"><path style="stroke:none" d="M 1.578125 0 C 1.367188 0 1.210938 -0.0507812 1.109375 -0.15625 C 1.003906 -0.257812 0.953125 -0.429688 0.953125 -0.671875 L 0.953125 -11.25 C 0.953125 -11.601562 1.28125 -11.78125 1.9375 -11.78125 L 2.59375 -11.78125 C 3.25 -11.78125 3.578125 -11.601562 3.578125 -11.25 L 3.578125 -2.203125 L 6.078125 -2.203125 C 6.253906 -2.203125 6.378906 -2.132812 6.453125 -2 C 6.535156 -1.863281 6.578125 -1.648438 6.578125 -1.359375 L 6.578125 -0.84375 C 6.578125 -0.550781 6.535156 -0.335938 6.453125 -0.203125 C 6.378906 -0.0664062 6.253906 0 6.078125 0 Z M 1.578125 0 "/></g></g><g style="fill:#163f4b;fill-opacity:1;"><g transform="translate(137.254843, 276.416876)"><path style="stroke:none" d="M 1.84375 0.046875 C 1.195312 0.046875 0.875 -0.132812 0.875 -0.5 L 0.875 -11.25 C 0.875 -11.613281 1.195312 -11.796875 1.84375 -11.796875 L 2.546875 -11.796875 C 3.179688 -11.796875 3.5 -11.613281 3.5 -11.25 L 3.5 -0.5 C 3.5 -0.132812 3.179688 0.046875 2.546875 0.046875 Z M 1.84375 0.046875 "/></g></g><g style="fill:#163f4b;fill-opacity:1;"><g transform="translate(145.681127, 276.416876)"><path style="stroke:none" d="M 5.625 -3.75 C 5.457031 -3.75 5.320312 -3.773438 5.21875 -3.828125 C 5.113281 -3.890625 5.023438 -3.992188 4.953125 -4.140625 L 3.703125 -6.453125 C 3.640625 -6.578125 3.570312 -6.71875 3.5 -6.875 C 3.4375 -7.039062 3.390625 -7.164062 3.359375 -7.25 L 3.296875 -7.234375 C 3.359375 -6.828125 3.390625 -6.519531 3.390625 -6.3125 L 3.390625 -0.5 C 3.390625 -0.3125 3.3125 -0.175781 3.15625 -0.09375 C 3.007812 -0.0078125 2.765625 0.03125 2.421875 0.03125 L 1.84375 0.03125 C 1.5 0.03125 1.25 -0.0078125 1.09375 -0.09375 C 0.945312 -0.175781 0.875 -0.3125 0.875 -0.5 L 0.875 -11.25 C 0.875 -11.4375 0.945312 -11.570312 1.09375 -11.65625 C 1.25 -11.738281 1.5 -11.78125 1.84375 -11.78125 L 2.359375 -11.78125 C 2.628906 -11.78125 2.84375 -11.742188 3 -11.671875 C 3.15625 -11.597656 3.28125 -11.476562 3.375 -11.3125 L 5.453125 -7.359375 C 5.566406 -7.160156 5.671875 -6.894531 5.765625 -6.5625 C 5.847656 -6.863281 5.953125 -7.128906 6.078125 -7.359375 L 8.15625 -11.3125 C 8.25 -11.476562 8.375 -11.597656 8.53125 -11.671875 C 8.6875 -11.742188 8.894531 -11.78125 9.15625 -11.78125 L 9.6875 -11.78125 C 10.03125 -11.78125 10.273438 -11.738281 10.421875 -11.65625 C 10.578125 -11.570312 10.65625 -11.4375 10.65625 -11.25 L 10.65625 -0.5 C 10.65625 -0.3125 10.578125 -0.175781 10.421875 -0.09375 C 10.273438 -0.0078125 10.03125 0.03125 9.6875 0.03125 L 9.109375 0.03125 C 8.765625 0.03125 8.515625 -0.0078125 8.359375 -0.09375 C 8.210938 -0.175781 8.140625 -0.3125 8.140625 -0.5 L 8.140625 -6.3125 C 8.140625 -6.582031 8.175781 -6.890625 8.25 -7.234375 L 8.1875 -7.25 C 8.113281 -7.039062 7.988281 -6.773438 7.8125 -6.453125 L 6.578125 -4.140625 C 6.492188 -3.992188 6.398438 -3.890625 6.296875 -3.828125 C 6.203125 -3.773438 6.070312 -3.75 5.90625 -3.75 Z M 5.625 -3.75 "/></g></g><g style="fill:#163f4b;fill-opacity:1;"><g transform="translate(161.273037, 276.416876)"><path style="stroke:none" d="M 1.84375 0.046875 C 1.195312 0.046875 0.875 -0.132812 0.875 -0.5 L 0.875 -11.25 C 0.875 -11.613281 1.195312 -11.796875 1.84375 -11.796875 L 2.546875 -11.796875 C 3.179688 -11.796875 3.5 -11.613281 3.5 -11.25 L 3.5 -0.5 C 3.5 -0.132812 3.179688 0.046875 2.546875 0.046875 Z M 1.84375 0.046875 "/></g></g><g style="fill:#163f4b;fill-opacity:1;"><g transform="translate(169.699321, 276.416876)"><path style="stroke:none" d="M 3.453125 0.03125 C 2.804688 0.03125 2.484375 -0.144531 2.484375 -0.5 L 2.484375 -9.546875 L 0.625 -9.546875 C 0.457031 -9.546875 0.332031 -9.613281 0.25 -9.75 C 0.175781 -9.882812 0.140625 -10.097656 0.140625 -10.390625 L 0.140625 -10.90625 C 0.140625 -11.195312 0.175781 -11.410156 0.25 -11.546875 C 0.332031 -11.679688 0.457031 -11.75 0.625 -11.75 L 7 -11.75 C 7.175781 -11.75 7.300781 -11.679688 7.375 -11.546875 C 7.457031 -11.410156 7.5 -11.195312 7.5 -10.90625 L 7.5 -10.390625 C 7.5 -10.097656 7.457031 -9.882812 7.375 -9.75 C 7.300781 -9.613281 7.175781 -9.546875 7 -9.546875 L 5.125 -9.546875 L 5.125 -0.5 C 5.125 -0.144531 4.796875 0.03125 4.140625 0.03125 Z M 3.453125 0.03125 "/></g></g><g style="fill:#163f4b;fill-opacity:1;"><g transform="translate(181.347621, 276.416876)"><path style="stroke:none" d="M 1.59375 0 C 1.382812 0 1.226562 -0.0507812 1.125 -0.15625 C 1.019531 -0.257812 0.96875 -0.429688 0.96875 -0.671875 L 0.96875 -11.078125 C 0.96875 -11.304688 1.019531 -11.472656 1.125 -11.578125 C 1.226562 -11.691406 1.382812 -11.75 1.59375 -11.75 L 6.546875 -11.75 C 6.710938 -11.75 6.832031 -11.679688 6.90625 -11.546875 C 6.988281 -11.410156 7.03125 -11.195312 7.03125 -10.90625 L 7.03125 -10.390625 C 7.03125 -10.097656 6.988281 -9.882812 6.90625 -9.75 C 6.832031 -9.613281 6.710938 -9.546875 6.546875 -9.546875 L 3.59375 -9.546875 L 3.59375 -7.109375 L 6.203125 -7.109375 C 6.367188 -7.109375 6.492188 -7.039062 6.578125 -6.90625 C 6.660156 -6.78125 6.703125 -6.570312 6.703125 -6.28125 L 6.703125 -5.75 C 6.703125 -5.457031 6.660156 -5.242188 6.578125 -5.109375 C 6.492188 -4.984375 6.367188 -4.921875 6.203125 -4.921875 L 3.59375 -4.921875 L 3.59375 -2.203125 L 6.5625 -2.203125 C 6.726562 -2.203125 6.847656 -2.132812 6.921875 -2 C 6.992188 -1.863281 7.03125 -1.648438 7.03125 -1.359375 L 7.03125 -0.84375 C 7.03125 -0.550781 6.992188 -0.335938 6.921875 -0.203125 C 6.847656 -0.0664062 6.726562 0 6.5625 0 Z M 1.59375 0 "/></g></g><g style="fill:#163f4b;fill-opacity:1;"><g transform="translate(193.046263, 276.416876)"><path style="stroke:none" d="M 1.578125 0 C 1.367188 0 1.210938 -0.0507812 1.109375 -0.15625 C 1.003906 -0.257812 0.953125 -0.429688 0.953125 -0.671875 L 0.953125 -11.078125 C 0.953125 -11.304688 1.003906 -11.472656 1.109375 -11.578125 C 1.210938 -11.691406 1.367188 -11.75 1.578125 -11.75 L 4.765625 -11.75 C 6.222656 -11.75 7.296875 -11.257812 7.984375 -10.28125 C 8.671875 -9.3125 9.015625 -7.84375 9.015625 -5.875 C 9.015625 -3.90625 8.671875 -2.429688 7.984375 -1.453125 C 7.296875 -0.484375 6.222656 0 4.765625 0 Z M 4.6875 -2.203125 C 5.28125 -2.203125 5.703125 -2.476562 5.953125 -3.03125 C 6.210938 -3.582031 6.34375 -4.53125 6.34375 -5.875 C 6.34375 -7.21875 6.210938 -8.164062 5.953125 -8.71875 C 5.703125 -9.269531 5.28125 -9.546875 4.6875 -9.546875 L 3.609375 -9.546875 L 3.609375 -2.203125 Z M 4.6875 -2.203125 "/></g></g></g></svg>